<svg xmlns="http://www.w3.org/2000/svg" width="2200" height="2720" viewBox="0 0 2200 2720">
  <defs><linearGradient id="grad-6" x1="0" y1="0" x2="1" y2="0"><stop offset="0.0%" stop-color="#053061"/><stop offset="10.0%" stop-color="#2166AC"/><stop offset="20.0%" stop-color="#4393C3"/><stop offset="30.0%" stop-color="#92C5DE"/><stop offset="40.0%" stop-color="#D1E5F0"/><stop offset="50.0%" stop-color="#F7F7F7"/><stop offset="60.0%" stop-color="#FDDBC7"/><stop offset="70.0%" stop-color="#F4A582"/><stop offset="80.0%" stop-color="#D6604D"/><stop offset="90.0%" stop-color="#B2182B"/><stop offset="100.0%" stop-color="#67001F"/></linearGradient><linearGradient id="grad-13" x1="0" y1="0" x2="1" y2="0"><stop offset="0.0%" stop-color="#251255"/><stop offset="12.5%" stop-color="#4F127B"/><stop offset="25.0%" stop-color="#752181"/><stop offset="37.5%" stop-color="#9C2E7F"/><stop offset="50.0%" stop-color="#C53C74"/><stop offset="62.5%" stop-color="#E95462"/><stop offset="75.0%" stop-color="#FA7D5E"/><stop offset="87.5%" stop-color="#FEAA74"/><stop offset="100.0%" stop-color="#FED89A"/></linearGradient><linearGradient id="grad-14" x1="0" y1="0" x2="1" y2="0"><stop offset="0.0%" stop-color="#FFFFFF"/><stop offset="12.5%" stop-color="#FEF7F6"/><stop offset="25.0%" stop-color="#FEEFEE"/><stop offset="37.5%" stop-color="#FDE8E5"/><stop offset="50.0%" stop-color="#FDE0DC"/><stop offset="62.5%" stop-color="#FCC8B7"/><stop offset="75.0%" stop-color="#FCAD90"/><stop offset="87.5%" stop-color="#F67F64"/><stop offset="100.0%" stop-color="#DE2D26"/></linearGradient><filter id="shadow" x="-10%" y="-10%" width="120%" height="120%"><feDropShadow dx="0" dy="5" stdDeviation="10" flood-color="#000000" flood-opacity=".07"/></filter></defs>
  <style>
    text{font-family:"Helvetica Neue",Arial,sans-serif;fill:#202124}
    .title{font-size:52px;font-weight:700;letter-spacing:1px}.subtitle{font-size:24px;fill:#606168}
    .pnum{font-size:22px;font-weight:700;fill:#767780}.pname{font-size:24px;font-weight:650}
    .status{font-size:14px;font-weight:700;letter-spacing:.8px}.hex{font-size:17px;font-weight:600;fill:#45464D}
    .footer{font-size:18px;fill:#74757C}
  </style>
  <rect width="2200" height="2720" fill="#FFFFFF"/>
  <text x="70" y="78" class="title">MASTER COLOR BANK</text>
  <text x="70" y="120" class="subtitle">91 unique colors · 15 curated combinations · shared colors repeat only where pairing matters</text>
  <line x1="70" y1="150" x2="2130" y2="150" stroke="#D6D7DB" stroke-width="2"/>
  <g filter="url(#shadow)"><g>
    <rect x="70" y="190" width="1000" height="418" rx="20" fill="#FBFBFC" stroke="#D9DADE" stroke-width="1.5"/>
    <text x="96" y="232" class="pnum">P1</text>
    <text x="158" y="232" class="pname">Soft scientific five-hue</text>
    <rect x="904" y="210" width="140" height="32" rx="16" fill="#E7F6EC"/>
    <text x="974" y="232" text-anchor="middle" fill="#25613A" class="status">PREFERRED</text>
    <g><rect x="96.0" y="268" width="125.1" height="58" rx="10" fill="#F9CB8A" stroke="#000000" stroke-opacity="0.12" stroke-width="1.5"/><text x="158.6" y="351" text-anchor="middle" class="hex">#F9CB8A</text></g><g><rect x="233.1" y="268" width="125.1" height="58" rx="10" fill="#F7BA64" stroke="#000000" stroke-opacity="0.12" stroke-width="1.5"/><text x="295.7" y="351" text-anchor="middle" class="hex">#F7BA64</text></g><g><rect x="370.3" y="268" width="125.1" height="58" rx="10" fill="#F5A83D" stroke="#000000" stroke-opacity="0.12" stroke-width="1.5"/><text x="432.9" y="351" text-anchor="middle" class="hex">#F5A83D</text></g><g><rect x="507.4" y="268" width="125.1" height="58" rx="10" fill="#FBA09D" stroke="#000000" stroke-opacity="0.12" stroke-width="1.5"/><text x="570.0" y="351" text-anchor="middle" class="hex">#FBA09D</text></g><g><rect x="644.6" y="268" width="125.1" height="58" rx="10" fill="#F86762" stroke="#000000" stroke-opacity="0.12" stroke-width="1.5"/><text x="707.1" y="351" text-anchor="middle" class="hex">#F86762</text></g><g><rect x="781.7" y="268" width="125.1" height="58" rx="10" fill="#F5433D" stroke="#000000" stroke-opacity="0.12" stroke-width="1.5"/><text x="844.3" y="351" text-anchor="middle" class="hex">#F5433D</text></g><g><rect x="918.9" y="268" width="125.1" height="58" rx="10" fill="#B3CDA2" stroke="#000000" stroke-opacity="0.12" stroke-width="1.5"/><text x="981.4" y="351" text-anchor="middle" class="hex">#B3CDA2</text></g><g><rect x="96.0" y="376" width="125.1" height="58" rx="10" fill="#9EBF88" stroke="#000000" stroke-opacity="0.12" stroke-width="1.5"/><text x="158.6" y="459" text-anchor="middle" class="hex">#9EBF88</text></g><g><rect x="233.1" y="376" width="125.1" height="58" rx="10" fill="#88B06D" stroke="#000000" stroke-opacity="0.12" stroke-width="1.5"/><text x="295.7" y="459" text-anchor="middle" class="hex">#88B06D</text></g><g><rect x="370.3" y="376" width="125.1" height="58" rx="10" fill="#D0B3FF" stroke="#000000" stroke-opacity="0.12" stroke-width="1.5"/><text x="432.9" y="459" text-anchor="middle" class="hex">#D0B3FF</text></g><g><rect x="507.4" y="376" width="125.1" height="58" rx="10" fill="#A984E6" stroke="#000000" stroke-opacity="0.12" stroke-width="1.5"/><text x="570.0" y="459" text-anchor="middle" class="hex">#A984E6</text></g><g><rect x="644.6" y="376" width="125.1" height="58" rx="10" fill="#7A5DE1" stroke="#000000" stroke-opacity="0.12" stroke-width="1.5"/><text x="707.1" y="459" text-anchor="middle" class="hex">#7A5DE1</text></g><g><rect x="781.7" y="376" width="125.1" height="58" rx="10" fill="#AEC6FE" stroke="#000000" stroke-opacity="0.12" stroke-width="1.5"/><text x="844.3" y="459" text-anchor="middle" class="hex">#AEC6FE</text></g><g><rect x="918.9" y="376" width="125.1" height="58" rx="10" fill="#86AAFE" stroke="#000000" stroke-opacity="0.12" stroke-width="1.5"/><text x="981.4" y="459" text-anchor="middle" class="hex">#86AAFE</text></g><g><rect x="96.0" y="484" width="125.1" height="58" rx="10" fill="#5D8DFD" stroke="#000000" stroke-opacity="0.12" stroke-width="1.5"/><text x="158.6" y="567" text-anchor="middle" class="hex">#5D8DFD</text></g><g><rect x="233.1" y="484" width="125.1" height="58" rx="10" fill="#BFBFC5" stroke="#000000" stroke-opacity="0.12" stroke-width="1.5"/><text x="295.7" y="567" text-anchor="middle" class="hex">#BFBFC5</text></g><g><rect x="370.3" y="484" width="125.1" height="58" rx="10" fill="#D4D4D8" stroke="#000000" stroke-opacity="0.12" stroke-width="1.5"/><text x="432.9" y="567" text-anchor="middle" class="hex">#D4D4D8</text></g>
  </g><g>
    <rect x="70" y="636" width="1000" height="202" rx="20" fill="#FBFBFC" stroke="#D9DADE" stroke-width="1.5"/>
    <text x="96" y="678" class="pnum">P2</text>
    <text x="158" y="678" class="pname">Warm coral × cool blue</text>
    <rect x="904" y="656" width="140" height="32" rx="16" fill="#EEEAF8"/>
    <text x="974" y="678" text-anchor="middle" fill="#5D488D" class="status">APPROVED</text>
    <g><rect x="96.0" y="714" width="125.1" height="58" rx="10" fill="#FB8E89" stroke="#000000" stroke-opacity="0.12" stroke-width="1.5"/><text x="158.6" y="797" text-anchor="middle" class="hex">#FB8E89</text></g><g><rect x="233.1" y="714" width="125.1" height="58" rx="10" fill="#6F9AFE" stroke="#000000" stroke-opacity="0.12" stroke-width="1.5"/><text x="295.7" y="797" text-anchor="middle" class="hex">#6F9AFE</text></g><g><rect x="370.3" y="714" width="125.1" height="58" rx="10" fill="#595959" stroke="#000000" stroke-opacity="0.12" stroke-width="1.5"/><text x="432.9" y="797" text-anchor="middle" class="hex">#595959</text></g>
  </g><g>
    <rect x="70" y="866" width="1000" height="310" rx="20" fill="#FBFBFC" stroke="#D9DADE" stroke-width="1.5"/>
    <text x="96" y="908" class="pnum">P3</text>
    <text x="158" y="908" class="pname">Status regions &amp; callouts</text>
    <rect x="904" y="886" width="140" height="32" rx="16" fill="#E9F1FF"/>
    <text x="974" y="908" text-anchor="middle" fill="#2A579A" class="status">VALIDATED</text>
    <g><rect x="96.0" y="944" width="125.1" height="58" rx="10" fill="#F5433D" stroke="#000000" stroke-opacity="0.12" stroke-width="1.5"/><text x="158.6" y="1027" text-anchor="middle" class="hex">#F5433D</text></g><g><rect x="233.1" y="944" width="125.1" height="58" rx="10" fill="#88B06D" stroke="#000000" stroke-opacity="0.12" stroke-width="1.5"/><text x="295.7" y="1027" text-anchor="middle" class="hex">#88B06D</text></g><g><rect x="370.3" y="944" width="125.1" height="58" rx="10" fill="#5D8DFD" stroke="#000000" stroke-opacity="0.12" stroke-width="1.5"/><text x="432.9" y="1027" text-anchor="middle" class="hex">#5D8DFD</text></g><g><rect x="507.4" y="944" width="125.1" height="58" rx="10" fill="#EF9463" stroke="#000000" stroke-opacity="0.12" stroke-width="1.5"/><text x="570.0" y="1027" text-anchor="middle" class="hex">#EF9463 · α.6</text></g><g><rect x="644.6" y="944" width="125.1" height="58" rx="10" fill="#C46032" stroke="#000000" stroke-opacity="0.12" stroke-width="1.5"/><text x="707.1" y="1027" text-anchor="middle" class="hex">#C46032</text></g><g><rect x="781.7" y="944" width="125.1" height="58" rx="10" fill="#002FAB" stroke="#000000" stroke-opacity="0.12" stroke-width="1.5"/><text x="844.3" y="1027" text-anchor="middle" class="hex">#002FAB · α.3</text></g><g><rect x="918.9" y="944" width="125.1" height="58" rx="10" fill="#496EC8" stroke="#000000" stroke-opacity="0.12" stroke-width="1.5"/><text x="981.4" y="1027" text-anchor="middle" class="hex">#496EC8</text></g><g><rect x="96.0" y="1052" width="125.1" height="58" rx="10" fill="#D3D3D3" stroke="#000000" stroke-opacity="0.12" stroke-width="1.5"/><text x="158.6" y="1135" text-anchor="middle" class="hex">#D3D3D3</text></g>
  </g><g>
    <rect x="70" y="1204" width="1000" height="418" rx="20" fill="#FBFBFC" stroke="#D9DADE" stroke-width="1.5"/>
    <text x="96" y="1246" class="pnum">P4</text>
    <text x="158" y="1246" class="pname">Deep semantic flow</text>
    <rect x="904" y="1224" width="140" height="32" rx="16" fill="#EEEAF8"/>
    <text x="974" y="1246" text-anchor="middle" fill="#5D488D" class="status">APPROVED</text>
    <g><rect x="96.0" y="1282" width="125.1" height="58" rx="10" fill="#B1001C" stroke="#000000" stroke-opacity="0.12" stroke-width="1.5"/><text x="158.6" y="1365" text-anchor="middle" class="hex">#B1001C</text></g><g><rect x="233.1" y="1282" width="125.1" height="58" rx="10" fill="#003776" stroke="#000000" stroke-opacity="0.12" stroke-width="1.5"/><text x="295.7" y="1365" text-anchor="middle" class="hex">#003776</text></g><g><rect x="370.3" y="1282" width="125.1" height="58" rx="10" fill="#310067" stroke="#000000" stroke-opacity="0.12" stroke-width="1.5"/><text x="432.9" y="1365" text-anchor="middle" class="hex">#310067</text></g><g><rect x="507.4" y="1282" width="125.1" height="58" rx="10" fill="#907CBB" stroke="#000000" stroke-opacity="0.12" stroke-width="1.5"/><text x="570.0" y="1365" text-anchor="middle" class="hex">#907CBB</text></g><g><rect x="644.6" y="1282" width="125.1" height="58" rx="10" fill="#92BFFF" stroke="#000000" stroke-opacity="0.12" stroke-width="1.5"/><text x="707.1" y="1365" text-anchor="middle" class="hex">#92BFFF</text></g><g><rect x="781.7" y="1282" width="125.1" height="58" rx="10" fill="#0C2734" stroke="#000000" stroke-opacity="0.12" stroke-width="1.5"/><text x="844.3" y="1365" text-anchor="middle" class="hex">#0C2734</text></g><g><rect x="918.9" y="1282" width="125.1" height="58" rx="10" fill="#939595" stroke="#000000" stroke-opacity="0.12" stroke-width="1.5"/><text x="981.4" y="1365" text-anchor="middle" class="hex">#939595</text></g><g><rect x="96.0" y="1390" width="125.1" height="58" rx="10" fill="#DADADA" stroke="#000000" stroke-opacity="0.12" stroke-width="1.5"/><text x="158.6" y="1473" text-anchor="middle" class="hex">#DADADA</text></g><g><rect x="233.1" y="1390" width="125.1" height="58" rx="10" fill="#FFFFFF" stroke="#A9ABB1" stroke-opacity="1" stroke-width="1.5"/><text x="295.7" y="1473" text-anchor="middle" class="hex">#FFFFFF</text></g><g><rect x="370.3" y="1390" width="125.1" height="58" rx="10" fill="#901113" stroke="#000000" stroke-opacity="0.12" stroke-width="1.5"/><text x="432.9" y="1473" text-anchor="middle" class="hex">#901113</text></g><g><rect x="507.4" y="1390" width="125.1" height="58" rx="10" fill="#DFBCB7" stroke="#000000" stroke-opacity="0.12" stroke-width="1.5"/><text x="570.0" y="1473" text-anchor="middle" class="hex">#DFBCB7</text></g><g><rect x="644.6" y="1390" width="125.1" height="58" rx="10" fill="#000000" stroke="#000000" stroke-opacity="0.12" stroke-width="1.5"/><text x="707.1" y="1473" text-anchor="middle" class="hex">#000000</text></g><g><rect x="781.7" y="1390" width="125.1" height="58" rx="10" fill="#666666" stroke="#000000" stroke-opacity="0.12" stroke-width="1.5"/><text x="844.3" y="1473" text-anchor="middle" class="hex">#666666</text></g><g><rect x="918.9" y="1390" width="125.1" height="58" rx="10" fill="#A5A5A5" stroke="#000000" stroke-opacity="0.12" stroke-width="1.5"/><text x="981.4" y="1473" text-anchor="middle" class="hex">#A5A5A5</text></g><g><rect x="96.0" y="1498" width="125.1" height="58" rx="10" fill="#D9D9D9" stroke="#000000" stroke-opacity="0.12" stroke-width="1.5"/><text x="158.6" y="1581" text-anchor="middle" class="hex">#D9D9D9</text></g>
  </g><g>
    <rect x="70" y="1650" width="1000" height="202" rx="20" fill="#FBFBFC" stroke="#D9DADE" stroke-width="1.5"/>
    <text x="96" y="1692" class="pnum">P5</text>
    <text x="158" y="1692" class="pname">Gray × burnt-orange workflow</text>
    <rect x="904" y="1670" width="140" height="32" rx="16" fill="#EEEAF8"/>
    <text x="974" y="1692" text-anchor="middle" fill="#5D488D" class="status">APPROVED</text>
    <g><rect x="96.0" y="1728" width="125.1" height="58" rx="10" fill="#666666" stroke="#000000" stroke-opacity="0.12" stroke-width="1.5"/><text x="158.6" y="1811" text-anchor="middle" class="hex">#666666</text></g><g><rect x="233.1" y="1728" width="125.1" height="58" rx="10" fill="#B34400" stroke="#000000" stroke-opacity="0.12" stroke-width="1.5"/><text x="295.7" y="1811" text-anchor="middle" class="hex">#B34400</text></g><g><rect x="370.3" y="1728" width="125.1" height="58" rx="10" fill="#A5A5A5" stroke="#000000" stroke-opacity="0.12" stroke-width="1.5"/><text x="432.9" y="1811" text-anchor="middle" class="hex">#A5A5A5</text></g><g><rect x="507.4" y="1728" width="125.1" height="58" rx="10" fill="#F3BAB1" stroke="#000000" stroke-opacity="0.12" stroke-width="1.5"/><text x="570.0" y="1811" text-anchor="middle" class="hex">#F3BAB1</text></g><g><rect x="644.6" y="1728" width="125.1" height="58" rx="10" fill="#FFFFFF" stroke="#A9ABB1" stroke-opacity="1" stroke-width="1.5"/><text x="707.1" y="1811" text-anchor="middle" class="hex">#FFFFFF</text></g><g><rect x="781.7" y="1728" width="125.1" height="58" rx="10" fill="#000000" stroke="#000000" stroke-opacity="0.12" stroke-width="1.5"/><text x="844.3" y="1811" text-anchor="middle" class="hex">#000000</text></g>
  </g><g>
    <rect x="70" y="1880" width="1000" height="382" rx="20" fill="#FBFBFC" stroke="#D9DADE" stroke-width="1.5"/>
    <text x="96" y="1922" class="pnum">P6</text>
    <text x="158" y="1922" class="pname">SDF/UDF diverging field</text>
    <rect x="904" y="1900" width="140" height="32" rx="16" fill="#EEEAF8"/>
    <text x="974" y="1922" text-anchor="middle" fill="#5D488D" class="status">APPROVED</text>
    <rect x="96" y="1958" width="948" height="44" rx="10" fill="url(#grad-6)" stroke="#BFC1C7" stroke-width="1.5"/><g><rect x="96.0" y="2030" width="125.1" height="58" rx="10" fill="#053061" stroke="#000000" stroke-opacity="0.12" stroke-width="1.5"/><text x="158.6" y="2113" text-anchor="middle" class="hex">#053061</text></g><g><rect x="233.1" y="2030" width="125.1" height="58" rx="10" fill="#2166AC" stroke="#000000" stroke-opacity="0.12" stroke-width="1.5"/><text x="295.7" y="2113" text-anchor="middle" class="hex">#2166AC</text></g><g><rect x="370.3" y="2030" width="125.1" height="58" rx="10" fill="#4393C3" stroke="#000000" stroke-opacity="0.12" stroke-width="1.5"/><text x="432.9" y="2113" text-anchor="middle" class="hex">#4393C3</text></g><g><rect x="507.4" y="2030" width="125.1" height="58" rx="10" fill="#92C5DE" stroke="#000000" stroke-opacity="0.12" stroke-width="1.5"/><text x="570.0" y="2113" text-anchor="middle" class="hex">#92C5DE</text></g><g><rect x="644.6" y="2030" width="125.1" height="58" rx="10" fill="#D1E5F0" stroke="#000000" stroke-opacity="0.12" stroke-width="1.5"/><text x="707.1" y="2113" text-anchor="middle" class="hex">#D1E5F0</text></g><g><rect x="781.7" y="2030" width="125.1" height="58" rx="10" fill="#F7F7F7" stroke="#A9ABB1" stroke-opacity="1" stroke-width="1.5"/><text x="844.3" y="2113" text-anchor="middle" class="hex">#F7F7F7</text></g><g><rect x="918.9" y="2030" width="125.1" height="58" rx="10" fill="#FDDBC7" stroke="#000000" stroke-opacity="0.12" stroke-width="1.5"/><text x="981.4" y="2113" text-anchor="middle" class="hex">#FDDBC7</text></g><g><rect x="96.0" y="2138" width="125.1" height="58" rx="10" fill="#F4A582" stroke="#000000" stroke-opacity="0.12" stroke-width="1.5"/><text x="158.6" y="2221" text-anchor="middle" class="hex">#F4A582</text></g><g><rect x="233.1" y="2138" width="125.1" height="58" rx="10" fill="#D6604D" stroke="#000000" stroke-opacity="0.12" stroke-width="1.5"/><text x="295.7" y="2221" text-anchor="middle" class="hex">#D6604D</text></g><g><rect x="370.3" y="2138" width="125.1" height="58" rx="10" fill="#B2182B" stroke="#000000" stroke-opacity="0.12" stroke-width="1.5"/><text x="432.9" y="2221" text-anchor="middle" class="hex">#B2182B</text></g><g><rect x="507.4" y="2138" width="125.1" height="58" rx="10" fill="#67001F" stroke="#000000" stroke-opacity="0.12" stroke-width="1.5"/><text x="570.0" y="2221" text-anchor="middle" class="hex">#67001F</text></g>
  </g><g>
    <rect x="70" y="2290" width="1000" height="202" rx="20" fill="#FBFBFC" stroke="#D9DADE" stroke-width="1.5"/>
    <text x="96" y="2332" class="pnum">P7</text>
    <text x="158" y="2332" class="pname">Flesh × gray × green</text>
    <rect x="904" y="2310" width="140" height="32" rx="16" fill="#EEEAF8"/>
    <text x="974" y="2332" text-anchor="middle" fill="#5D488D" class="status">APPROVED</text>
    <g><rect x="96.0" y="2368" width="125.1" height="58" rx="10" fill="#EDD1C6" stroke="#000000" stroke-opacity="0.12" stroke-width="1.5"/><text x="158.6" y="2451" text-anchor="middle" class="hex">#EDD1C6</text></g><g><rect x="233.1" y="2368" width="125.1" height="58" rx="10" fill="#999999" stroke="#000000" stroke-opacity="0.12" stroke-width="1.5"/><text x="295.7" y="2451" text-anchor="middle" class="hex">#999999</text></g><g><rect x="370.3" y="2368" width="125.1" height="58" rx="10" fill="#B2DEA1" stroke="#000000" stroke-opacity="0.12" stroke-width="1.5"/><text x="432.9" y="2451" text-anchor="middle" class="hex">#B2DEA1</text></g>
  </g><g>
    <rect x="1130" y="190" width="1000" height="202" rx="20" fill="#FBFBFC" stroke="#D9DADE" stroke-width="1.5"/>
    <text x="1156" y="232" class="pnum">P8</text>
    <text x="1218" y="232" class="pname">Completion blue family</text>
    <rect x="1964" y="210" width="140" height="32" rx="16" fill="#FFF4D6"/>
    <text x="2034" y="232" text-anchor="middle" fill="#8A5A00" class="status">CANDIDATE</text>
    <g><rect x="1156.0" y="268" width="125.1" height="58" rx="10" fill="#6F99E1" stroke="#000000" stroke-opacity="0.12" stroke-width="1.5"/><text x="1218.6" y="351" text-anchor="middle" class="hex">#6F99E1</text></g><g><rect x="1293.1" y="268" width="125.1" height="58" rx="10" fill="#C5D5EE" stroke="#000000" stroke-opacity="0.12" stroke-width="1.5"/><text x="1355.7" y="351" text-anchor="middle" class="hex">#C5D5EE</text></g>
  </g><g>
    <rect x="1130" y="420" width="1000" height="202" rx="20" fill="#FBFBFC" stroke="#D9DADE" stroke-width="1.5"/>
    <text x="1156" y="462" class="pnum">P9</text>
    <text x="1218" y="462" class="pname">Completion red family</text>
    <rect x="1964" y="440" width="140" height="32" rx="16" fill="#FFF4D6"/>
    <text x="2034" y="462" text-anchor="middle" fill="#8A5A00" class="status">CANDIDATE</text>
    <g><rect x="1156.0" y="498" width="125.1" height="58" rx="10" fill="#E38897" stroke="#000000" stroke-opacity="0.12" stroke-width="1.5"/><text x="1218.6" y="581" text-anchor="middle" class="hex">#E38897</text></g><g><rect x="1293.1" y="498" width="125.1" height="58" rx="10" fill="#EDC3C7" stroke="#000000" stroke-opacity="0.12" stroke-width="1.5"/><text x="1355.7" y="581" text-anchor="middle" class="hex">#EDC3C7</text></g>
  </g><g>
    <rect x="1130" y="650" width="1000" height="202" rx="20" fill="#FBFBFC" stroke="#D9DADE" stroke-width="1.5"/>
    <text x="1156" y="692" class="pnum">P10</text>
    <text x="1218" y="692" class="pname">Completion green anchor</text>
    <rect x="1964" y="670" width="140" height="32" rx="16" fill="#FFF4D6"/>
    <text x="2034" y="692" text-anchor="middle" fill="#8A5A00" class="status">CANDIDATE</text>
    <g><rect x="1156.0" y="728" width="125.1" height="58" rx="10" fill="#BFCEA5" stroke="#000000" stroke-opacity="0.12" stroke-width="1.5"/><text x="1218.6" y="811" text-anchor="middle" class="hex">#BFCEA5</text></g>
  </g><g>
    <rect x="1130" y="880" width="1000" height="202" rx="20" fill="#FBFBFC" stroke="#D9DADE" stroke-width="1.5"/>
    <text x="1156" y="922" class="pnum">P11</text>
    <text x="1218" y="922" class="pname">Mint × coral geometry</text>
    <rect x="1964" y="900" width="140" height="32" rx="16" fill="#EEEAF8"/>
    <text x="2034" y="922" text-anchor="middle" fill="#5D488D" class="status">APPROVED</text>
    <g><rect x="1156.0" y="958" width="125.1" height="58" rx="10" fill="#A6E2B4" stroke="#000000" stroke-opacity="0.12" stroke-width="1.5"/><text x="1218.6" y="1041" text-anchor="middle" class="hex">#A6E2B4</text></g><g><rect x="1293.1" y="958" width="125.1" height="58" rx="10" fill="#F9856A" stroke="#000000" stroke-opacity="0.12" stroke-width="1.5"/><text x="1355.7" y="1041" text-anchor="middle" class="hex">#F9856A</text></g><g><rect x="1430.3" y="958" width="125.1" height="58" rx="10" fill="#FACBBB" stroke="#000000" stroke-opacity="0.12" stroke-width="1.5"/><text x="1492.9" y="1041" text-anchor="middle" class="hex">#FACBBB</text></g>
  </g><g>
    <rect x="1130" y="1110" width="1000" height="202" rx="20" fill="#FBFBFC" stroke="#D9DADE" stroke-width="1.5"/>
    <text x="1156" y="1152" class="pnum">P12</text>
    <text x="1218" y="1152" class="pname">Muted geometry + gray ramp</text>
    <rect x="1964" y="1130" width="140" height="32" rx="16" fill="#EEEAF8"/>
    <text x="2034" y="1152" text-anchor="middle" fill="#5D488D" class="status">APPROVED</text>
    <g><rect x="1156.0" y="1188" width="125.1" height="58" rx="10" fill="#DFB5A7" stroke="#000000" stroke-opacity="0.12" stroke-width="1.5"/><text x="1218.6" y="1271" text-anchor="middle" class="hex">#DFB5A7</text></g><g><rect x="1293.1" y="1188" width="125.1" height="58" rx="10" fill="#D2AB9D" stroke="#000000" stroke-opacity="0.12" stroke-width="1.5"/><text x="1355.7" y="1271" text-anchor="middle" class="hex">#D2AB9D</text></g><g><rect x="1430.3" y="1188" width="125.1" height="58" rx="10" fill="#90C39C" stroke="#000000" stroke-opacity="0.12" stroke-width="1.5"/><text x="1492.9" y="1271" text-anchor="middle" class="hex">#90C39C</text></g><g><rect x="1567.4" y="1188" width="125.1" height="58" rx="10" fill="#F5F7F9" stroke="#A9ABB1" stroke-opacity="1" stroke-width="1.5"/><text x="1630.0" y="1271" text-anchor="middle" class="hex">#F5F7F9</text></g><g><rect x="1704.6" y="1188" width="125.1" height="58" rx="10" fill="#E6E6E8" stroke="#000000" stroke-opacity="0.12" stroke-width="1.5"/><text x="1767.1" y="1271" text-anchor="middle" class="hex">#E6E6E8</text></g><g><rect x="1841.7" y="1188" width="125.1" height="58" rx="10" fill="#CDCECF" stroke="#000000" stroke-opacity="0.12" stroke-width="1.5"/><text x="1904.3" y="1271" text-anchor="middle" class="hex">#CDCECF</text></g>
  </g><g>
    <rect x="1130" y="1340" width="1000" height="382" rx="20" fill="#FBFBFC" stroke="#D9DADE" stroke-width="1.5"/>
    <text x="1156" y="1382" class="pnum">P13</text>
    <text x="1218" y="1382" class="pname">Violet → coral error ramp</text>
    <rect x="1964" y="1360" width="140" height="32" rx="16" fill="#EEEAF8"/>
    <text x="2034" y="1382" text-anchor="middle" fill="#5D488D" class="status">APPROVED</text>
    <rect x="1156" y="1418" width="948" height="44" rx="10" fill="url(#grad-13)" stroke="#BFC1C7" stroke-width="1.5"/><g><rect x="1156.0" y="1490" width="125.1" height="58" rx="10" fill="#251255" stroke="#000000" stroke-opacity="0.12" stroke-width="1.5"/><text x="1218.6" y="1573" text-anchor="middle" class="hex">#251255</text></g><g><rect x="1293.1" y="1490" width="125.1" height="58" rx="10" fill="#4F127B" stroke="#000000" stroke-opacity="0.12" stroke-width="1.5"/><text x="1355.7" y="1573" text-anchor="middle" class="hex">#4F127B</text></g><g><rect x="1430.3" y="1490" width="125.1" height="58" rx="10" fill="#752181" stroke="#000000" stroke-opacity="0.12" stroke-width="1.5"/><text x="1492.9" y="1573" text-anchor="middle" class="hex">#752181</text></g><g><rect x="1567.4" y="1490" width="125.1" height="58" rx="10" fill="#9C2E7F" stroke="#000000" stroke-opacity="0.12" stroke-width="1.5"/><text x="1630.0" y="1573" text-anchor="middle" class="hex">#9C2E7F</text></g><g><rect x="1704.6" y="1490" width="125.1" height="58" rx="10" fill="#C53C74" stroke="#000000" stroke-opacity="0.12" stroke-width="1.5"/><text x="1767.1" y="1573" text-anchor="middle" class="hex">#C53C74</text></g><g><rect x="1841.7" y="1490" width="125.1" height="58" rx="10" fill="#E95462" stroke="#000000" stroke-opacity="0.12" stroke-width="1.5"/><text x="1904.3" y="1573" text-anchor="middle" class="hex">#E95462</text></g><g><rect x="1978.9" y="1490" width="125.1" height="58" rx="10" fill="#FA7D5E" stroke="#000000" stroke-opacity="0.12" stroke-width="1.5"/><text x="2041.4" y="1573" text-anchor="middle" class="hex">#FA7D5E</text></g><g><rect x="1156.0" y="1598" width="125.1" height="58" rx="10" fill="#FEAA74" stroke="#000000" stroke-opacity="0.12" stroke-width="1.5"/><text x="1218.6" y="1681" text-anchor="middle" class="hex">#FEAA74</text></g><g><rect x="1293.1" y="1598" width="125.1" height="58" rx="10" fill="#FED89A" stroke="#000000" stroke-opacity="0.12" stroke-width="1.5"/><text x="1355.7" y="1681" text-anchor="middle" class="hex">#FED89A</text></g>
  </g><g>
    <rect x="1130" y="1750" width="1000" height="382" rx="20" fill="#FBFBFC" stroke="#D9DADE" stroke-width="1.5"/>
    <text x="1156" y="1792" class="pnum">P14</text>
    <text x="1218" y="1792" class="pname">White → orange-red ramp</text>
    <rect x="1964" y="1770" width="140" height="32" rx="16" fill="#EEEAF8"/>
    <text x="2034" y="1792" text-anchor="middle" fill="#5D488D" class="status">APPROVED</text>
    <rect x="1156" y="1828" width="948" height="44" rx="10" fill="url(#grad-14)" stroke="#BFC1C7" stroke-width="1.5"/><g><rect x="1156.0" y="1900" width="125.1" height="58" rx="10" fill="#FFFFFF" stroke="#A9ABB1" stroke-opacity="1" stroke-width="1.5"/><text x="1218.6" y="1983" text-anchor="middle" class="hex">#FFFFFF</text></g><g><rect x="1293.1" y="1900" width="125.1" height="58" rx="10" fill="#FEF7F6" stroke="#A9ABB1" stroke-opacity="1" stroke-width="1.5"/><text x="1355.7" y="1983" text-anchor="middle" class="hex">#FEF7F6</text></g><g><rect x="1430.3" y="1900" width="125.1" height="58" rx="10" fill="#FEEFEE" stroke="#A9ABB1" stroke-opacity="1" stroke-width="1.5"/><text x="1492.9" y="1983" text-anchor="middle" class="hex">#FEEFEE</text></g><g><rect x="1567.4" y="1900" width="125.1" height="58" rx="10" fill="#FDE8E5" stroke="#A9ABB1" stroke-opacity="1" stroke-width="1.5"/><text x="1630.0" y="1983" text-anchor="middle" class="hex">#FDE8E5</text></g><g><rect x="1704.6" y="1900" width="125.1" height="58" rx="10" fill="#FDE0DC" stroke="#000000" stroke-opacity="0.12" stroke-width="1.5"/><text x="1767.1" y="1983" text-anchor="middle" class="hex">#FDE0DC</text></g><g><rect x="1841.7" y="1900" width="125.1" height="58" rx="10" fill="#FCC8B7" stroke="#000000" stroke-opacity="0.12" stroke-width="1.5"/><text x="1904.3" y="1983" text-anchor="middle" class="hex">#FCC8B7</text></g><g><rect x="1978.9" y="1900" width="125.1" height="58" rx="10" fill="#FCAD90" stroke="#000000" stroke-opacity="0.12" stroke-width="1.5"/><text x="2041.4" y="1983" text-anchor="middle" class="hex">#FCAD90</text></g><g><rect x="1156.0" y="2008" width="125.1" height="58" rx="10" fill="#F67F64" stroke="#000000" stroke-opacity="0.12" stroke-width="1.5"/><text x="1218.6" y="2091" text-anchor="middle" class="hex">#F67F64</text></g><g><rect x="1293.1" y="2008" width="125.1" height="58" rx="10" fill="#DE2D26" stroke="#000000" stroke-opacity="0.12" stroke-width="1.5"/><text x="1355.7" y="2091" text-anchor="middle" class="hex">#DE2D26</text></g>
  </g><g>
    <rect x="1130" y="2160" width="1000" height="202" rx="20" fill="#FBFBFC" stroke="#D9DADE" stroke-width="1.5"/>
    <text x="1156" y="2202" class="pnum">P15</text>
    <text x="1218" y="2202" class="pname">Sage × orange × steel blue</text>
    <rect x="1964" y="2180" width="140" height="32" rx="16" fill="#EEEAF8"/>
    <text x="2034" y="2202" text-anchor="middle" fill="#5D488D" class="status">APPROVED</text>
    <g><rect x="1156.0" y="2238" width="125.1" height="58" rx="10" fill="#CACCA2" stroke="#000000" stroke-opacity="0.12" stroke-width="1.5"/><text x="1218.6" y="2321" text-anchor="middle" class="hex">#CACCA2</text></g><g><rect x="1293.1" y="2238" width="125.1" height="58" rx="10" fill="#D58B53" stroke="#000000" stroke-opacity="0.12" stroke-width="1.5"/><text x="1355.7" y="2321" text-anchor="middle" class="hex">#D58B53</text></g><g><rect x="1430.3" y="2238" width="125.1" height="58" rx="10" fill="#7196AC" stroke="#000000" stroke-opacity="0.12" stroke-width="1.5"/><text x="1492.9" y="2321" text-anchor="middle" class="hex">#7196AC</text></g>
  </g><g>
    <rect x="1130" y="2390" width="1000" height="202" rx="20" fill="#FBFBFC" stroke="#D9DADE" stroke-width="1.5"/>
    <text x="1156" y="2432" class="pnum">U</text>
    <text x="1218" y="2432" class="pname">Standalone utility</text>
    <rect x="1964" y="2410" width="140" height="32" rx="16" fill="#EFEFF2"/>
    <text x="2034" y="2432" text-anchor="middle" fill="#5C5C66" class="status">UTILITY</text>
    <g><rect x="1156.0" y="2468" width="125.1" height="58" rx="10" fill="#E6E6E6" stroke="#000000" stroke-opacity="0.12" stroke-width="1.5"/><text x="1218.6" y="2551" text-anchor="middle" class="hex">#E6E6E6</text></g>
  </g></g>
  <text x="1100" y="2698" text-anchor="middle" class="footer">Exact Hex values shown · ramps preserve left-to-right ordering · α marks stored transparency</text>
</svg>
